<svg width="246" height="30" viewBox="0 0 246 30" fill="none" xmlns="http://www.w3.org/2000/svg">
    <path d="M2.1297 28.9326C1.56176 29.0035 1.06482 28.5071 1.06482 27.9398C1.06482 19.4303 1.06482 10.9917 1.06482 2.48215C1.06482 1.84393 1.56176 1.41846 2.1297 1.41846C7.38311 1.41846 12.5655 1.41846 17.8189 1.41846C19.8777 1.41846 21.7945 2.1985 23.2143 3.68766C24.6342 5.10592 25.4861 7.09148 25.4151 9.14795C25.4151 10.8499 24.7052 12.4099 23.4983 13.4736C25.7701 14.821 26.8349 16.8774 26.693 19.714C26.48 24.3233 22.7174 27.8689 17.748 28.1526C12.4945 28.2944 7.31212 28.5781 2.1297 28.9326ZM14.1984 19.2885C14.9083 19.2885 14.9083 18.9339 14.9083 18.7921C14.9083 18.6503 14.9083 18.2957 14.1984 18.2957C13.7724 18.2957 13.2755 18.2957 12.8495 18.3666C12.8495 18.7212 12.8495 19.0048 12.8495 19.3594C13.3464 19.3594 13.7724 19.2885 14.1984 19.2885ZM13.6304 10.5662C13.7014 10.5662 13.8434 10.5662 13.8434 10.2826C13.8434 10.2116 13.8434 10.1407 13.7724 10.1407C13.7724 10.1407 13.7014 10.0698 13.5594 10.0698C13.3464 10.0698 13.0625 10.0698 12.8495 10.0698C12.8495 10.2116 12.8495 10.3535 12.8495 10.4953C13.1335 10.5662 13.3464 10.5662 13.6304 10.5662Z" fill="#2D2D34"/>
    <path d="M17.819 2.41119C21.5106 2.41119 24.4213 5.46044 24.3503 9.07699C24.2793 10.9916 23.2144 12.8354 21.2976 13.5445C24.2083 14.6082 25.7701 16.381 25.6281 19.5721C25.4152 23.685 22.1495 26.7343 17.748 27.0179C12.5656 27.3016 7.38318 27.5852 2.12976 27.8689C2.12976 19.4303 2.12976 10.9207 2.12976 2.48211C7.38318 2.4112 12.5656 2.41119 17.819 2.41119ZM11.7847 11.6299C12.3526 11.6299 12.9916 11.6299 13.5595 11.5589C15.1923 11.488 15.3343 8.93517 13.5595 9.00609C12.9916 9.00609 12.3526 9.00609 11.7847 9.00609C11.7847 9.92795 11.7847 10.7789 11.7847 11.6299ZM11.7847 20.423C12.5656 20.423 13.4175 20.3521 14.1984 20.3521C15.4053 20.2812 15.9732 19.5012 15.9732 18.7211C15.9732 17.9411 15.4763 17.1611 14.1984 17.232C13.4175 17.232 12.5656 17.3029 11.7847 17.3029C11.7847 18.3666 11.7847 19.4303 11.7847 20.423ZM17.819 0.283808C12.5656 0.283808 7.38318 0.283803 2.12976 0.212891C0.922897 0.212891 0 1.20567 0 2.41119C0 10.9207 0 19.4303 0 27.9398C0 29.1453 0.922897 30.0672 2.12976 29.9963C7.31218 29.6417 12.4946 29.3581 17.748 29.0744C23.2854 28.7199 27.5449 24.7487 27.7579 19.5721C27.8999 16.8065 27.048 14.6791 25.1312 13.1899C25.9831 12.0553 26.48 10.6371 26.551 9.07699C26.622 6.80778 25.6991 4.53857 24.0663 2.90758C22.2915 1.20567 20.1618 0.283808 17.819 0.283808Z" fill="#C59D6E"/>
    <path d="M26.8349 27.5141C26.267 27.5141 25.77 27.0886 25.77 26.5213C25.77 18.4373 25.77 10.4241 25.77 2.34006C25.77 1.77276 26.267 1.27637 26.8349 1.27637C33.4372 1.27637 40.1104 1.27637 46.7127 1.27637C47.2806 1.27637 47.7776 1.70185 47.7776 2.26915C47.7776 4.53836 47.7776 6.80757 47.7776 9.14769C47.7776 9.57317 47.4936 9.92774 47.1386 10.0696C47.2806 10.2114 47.4226 10.495 47.4226 10.7078C47.4226 12.8352 47.4226 15.0335 47.4226 17.1608C47.4226 17.3736 47.3516 17.5863 47.2096 17.7991C47.5646 17.9409 47.8486 18.2954 47.8486 18.7209C47.8486 20.9901 47.8486 23.2593 47.8486 25.5995C47.8486 26.1668 47.3516 26.5922 46.7837 26.6632C40.0394 26.9468 33.4372 27.2305 26.8349 27.5141Z" fill="#2D2D34"/>
    <path d="M46.7127 2.34016C46.7127 4.60937 46.7127 6.87859 46.7127 9.21871C43.3051 9.28963 39.8975 9.28963 36.4899 9.36054C36.4899 9.85693 36.4899 10.4242 36.4899 10.9206C39.7555 10.8497 43.0921 10.8497 46.3578 10.7788C46.3578 12.9771 46.3578 15.1045 46.3578 17.3028C43.0921 17.3737 39.7555 17.4446 36.4899 17.5864C36.4899 18.0828 36.4899 18.6501 36.4899 19.1465C39.8975 19.0756 43.3051 18.9338 46.7127 18.8629C46.7127 21.1321 46.7127 23.4013 46.7127 25.7414C40.1105 26.0251 33.4372 26.3087 26.835 26.5924C26.835 18.5792 26.835 10.4951 26.835 2.48199C33.4372 2.34017 40.1105 2.34016 46.7127 2.34016ZM46.7127 0.354609C40.1105 0.354609 33.4372 0.354604 26.835 0.283691C25.6281 0.283691 24.7052 1.20555 24.7052 2.34016C24.7052 10.4242 24.7052 18.5083 24.7052 26.5924C24.7052 27.727 25.6281 28.6488 26.835 28.5779C33.4372 28.2234 40.1105 27.9397 46.7127 27.6561C47.9196 27.5851 48.8425 26.6633 48.8425 25.5996C48.8425 23.3304 48.8425 21.0612 48.8425 18.792C48.8425 18.3665 48.7005 17.941 48.4165 17.5864C48.4165 17.4446 48.4165 17.3737 48.4165 17.2319C48.4165 15.1045 48.4165 12.9062 48.4165 10.7788C48.4165 10.637 48.4165 10.5661 48.4165 10.4242C48.7005 10.0697 48.8425 9.64419 48.8425 9.21871C48.8425 6.9495 48.8425 4.68029 48.8425 2.41108C48.8425 1.27647 47.9196 0.354609 46.7127 0.354609Z" fill="#C59D6E"/>
    <path d="M68.0106 25.883C67.5846 25.883 67.1586 25.6702 67.0167 25.3157C66.7327 24.6774 66.4487 23.9683 66.1648 23.3301C64.035 23.401 61.9052 23.4719 59.7755 23.5428C59.4915 24.252 59.2075 24.8902 58.9946 25.5993C58.8526 25.9539 58.4266 26.2375 58.0007 26.3084C54.664 26.4503 51.3274 26.5212 47.9908 26.663C47.4228 26.663 46.9259 26.2375 46.9259 25.6702C46.9259 25.3866 46.9259 25.1029 46.9259 24.7483C46.9259 24.6065 46.9259 24.4647 46.9969 24.3938C50.1915 16.7352 53.3862 9.14753 56.5808 1.70169C56.7228 1.34712 57.1488 1.06348 57.5747 1.06348C61.1953 1.06348 64.8869 1.06348 68.5075 1.06348C68.9334 1.06348 69.3594 1.27621 69.5014 1.70169C72.696 9.00571 75.8907 16.2388 79.0853 23.401C79.1563 23.5428 79.1563 23.6137 79.1563 23.7556C79.1563 24.0392 79.1563 24.3229 79.1563 24.6065C79.1563 25.1029 78.6594 25.5993 78.0914 25.5993C74.7548 25.7411 71.3472 25.812 68.0106 25.883ZM63.1831 15.6006C63.1121 15.4588 63.1121 15.246 63.0411 15.1042C62.9701 15.246 62.9701 15.4588 62.8991 15.6006C62.9701 15.6006 63.0411 15.6006 63.1831 15.6006Z" fill="#2D2D34"/>
    <path d="M68.5073 2.05625C71.702 9.36027 74.8966 16.5934 78.0912 23.7556C78.0912 24.0392 78.0912 24.3229 78.0912 24.6065C74.7546 24.6774 71.418 24.7483 68.0814 24.8902C67.7264 24.0392 67.3714 23.1883 67.0165 22.3373C64.3898 22.4082 61.7631 22.4791 59.1364 22.55C58.7814 23.4719 58.4264 24.3229 58.0715 25.2447C54.7349 25.3866 51.3982 25.4575 48.0616 25.5993C48.0616 25.3156 48.0616 25.032 48.0616 24.6774C51.2562 17.0188 54.4509 9.50209 57.6455 2.05625C61.1951 2.05625 64.8867 2.05625 68.5073 2.05625ZM61.5501 16.5934C62.544 16.5934 63.5379 16.5225 64.4608 16.5225C63.9638 14.6078 63.4669 12.7641 62.9699 10.8494C62.544 12.7641 62.047 14.6787 61.5501 16.5934ZM68.5073 0.141602C64.8867 0.141602 61.1951 0.141602 57.5745 0.141602C56.7226 0.141602 55.9417 0.637989 55.5868 1.34712C52.3921 8.79296 49.1975 16.3806 46.0028 24.0392C45.9318 24.252 45.8608 24.5356 45.8608 24.7483C45.8608 25.032 45.8608 25.3157 45.8608 25.6702C45.8608 26.8048 46.7837 27.6558 47.9906 27.5849C51.3272 27.443 54.6639 27.3012 58.0005 27.2303C58.9234 27.2303 59.7043 26.663 59.9883 25.883C60.2012 25.4575 60.3432 24.9611 60.5562 24.5356C62.189 24.4647 63.8218 24.4647 65.4546 24.3938C65.6676 24.8193 65.8096 25.3156 66.0226 25.7411C66.3066 26.4503 67.1585 26.9466 68.0104 26.9466C71.347 26.8757 74.6836 26.7339 78.0202 26.663C79.2271 26.663 80.15 25.7411 80.15 24.6774C80.15 24.3938 80.15 24.1101 80.15 23.8265C80.15 23.6137 80.079 23.3301 80.008 23.1174C76.8134 15.9552 73.6187 8.72206 70.4241 1.41803C70.1401 0.637993 69.3592 0.141602 68.5073 0.141602Z" fill="#C59D6E"/>
    <path d="M92.6446 25.3159C92.2186 25.3159 91.8637 25.1032 91.6507 24.8195C91.0827 23.6849 90.4438 22.6212 89.8759 21.4866C89.8759 22.4794 89.8759 23.4722 89.8759 24.465C89.8759 24.9614 89.3789 25.3868 88.811 25.4577C85.6163 25.5287 82.3507 25.5996 79.1561 25.6705C78.5881 25.6705 78.0912 25.245 78.0912 24.7486C78.0912 17.3028 78.0912 9.85693 78.0912 2.41108C78.0912 1.91469 78.5881 1.4183 79.1561 1.48922C82.7057 1.48922 86.3263 1.48922 89.8759 1.48922C98.6789 1.56013 103.08 4.60938 103.08 10.4951C103.08 13.4026 101.945 15.6718 99.7438 17.161C100.951 19.1465 102.158 21.1321 103.364 23.1176C103.435 23.2594 103.506 23.4013 103.506 23.5431C103.506 23.7558 103.506 23.9686 103.506 24.2522C103.506 24.7486 103.009 25.1741 102.441 25.1741C99.1758 25.245 95.9102 25.245 92.6446 25.3159ZM90.0888 10.9915C91.3667 10.9915 91.3667 10.7788 91.3667 10.4951C91.3667 10.2115 91.3667 9.92785 90.0888 9.92785C90.0179 9.92785 89.8759 9.92785 89.8049 9.92785C89.8049 10.2824 89.8049 10.637 89.8049 10.9915C89.8759 10.9915 90.0179 10.9915 90.0888 10.9915Z" fill="#2D2D34"/>
    <path d="M89.8759 2.34031C96.0522 2.41122 102.016 3.9004 102.016 10.4244C102.016 13.6155 100.525 15.601 98.395 16.8065C99.7438 19.0758 101.093 21.274 102.442 23.5433C102.442 23.756 102.442 23.9687 102.442 24.2524C99.1759 24.3233 95.9103 24.3233 92.7156 24.3942C91.6507 22.4796 90.5858 20.494 89.592 18.5794C89.379 18.5794 89.166 18.5794 88.953 18.5794C88.953 20.5649 88.953 22.4796 88.953 24.4651C85.7584 24.536 82.4928 24.6069 79.2981 24.6779C79.2981 17.232 79.2981 9.78616 79.2981 2.34031C83.2027 2.34031 85.9004 2.34031 89.8759 2.34031ZM88.7401 11.9845C89.166 11.9845 89.663 11.9845 90.0889 11.9845C91.6507 11.9136 92.4316 11.559 92.4316 10.4953C92.4316 9.4316 91.7217 9.00613 90.0889 9.00613C89.663 9.00613 89.166 9.00613 88.7401 9.00613C88.7401 9.99891 88.7401 10.9917 88.7401 11.9845ZM89.8759 0.496582C86.3263 0.496582 82.7057 0.496582 79.1561 0.496582C77.9493 0.496582 77.0264 1.34753 77.0264 2.41123C77.0264 9.85708 77.0264 17.3029 77.0264 24.7488C77.0264 25.8125 77.9493 26.6634 79.1561 26.5925C82.3508 26.5216 85.6164 26.4507 88.811 26.3798C89.663 26.3798 90.3729 25.8834 90.7278 25.2452C91.0828 25.8834 91.7927 26.3089 92.6446 26.238C95.9103 26.167 99.1759 26.0961 102.371 26.0961C103.577 26.0961 104.5 25.2452 104.5 24.1815C104.5 23.9687 104.5 23.756 104.5 23.4723C104.5 23.1887 104.429 22.8341 104.287 22.6214C103.222 20.8486 102.158 19.0758 101.093 17.3029C102.725 15.9556 104.145 13.7573 104.145 10.4244C104.145 5.95687 101.732 0.567495 89.8759 0.496582Z" fill="#C59D6E"/>
    <path d="M124.165 25.5995C114.368 25.6705 109.896 19.2883 109.896 13.3316C109.896 7.30403 114.439 0.921875 124.236 0.921875C130.412 0.921875 137.157 4.11296 138.435 11.1333C138.506 11.3461 138.435 11.6297 138.222 11.8425C138.435 11.9843 138.506 12.2679 138.506 12.4807C138.506 12.6225 138.506 12.6934 138.506 12.8352C138.506 14.1117 138.506 15.2463 138.151 16.6645C136.305 22.8339 129.845 25.5995 124.165 25.5995ZM124.449 10.4951C123.029 10.4951 121.538 11.417 121.538 13.4025C121.538 14.7499 122.035 15.6008 122.674 16.0263C122.674 14.8917 122.674 13.6862 122.674 12.5516C122.674 12.0552 123.171 11.6297 123.739 11.6297C124.733 11.6297 125.727 11.6297 126.721 11.6297C126.224 10.8497 125.372 10.4951 124.449 10.4951Z" fill="#2D2D34"/>
    <path d="M124.165 1.84373C130.199 1.84373 136.163 5.03481 137.299 11.2751C134.104 11.2751 130.909 11.2751 127.786 11.2751C127.076 10.1405 125.798 9.50231 124.449 9.50231C122.461 9.50231 120.474 10.7787 120.474 13.3316C120.474 16.3099 122.532 17.3736 124.591 17.3736C125.656 17.3736 127.147 16.9482 127.573 16.0972C126.295 16.0972 125.017 16.0972 123.739 16.0972C123.739 14.8917 123.739 13.6862 123.739 12.4807C128.283 12.4807 132.897 12.4807 137.441 12.4807C137.441 13.8989 137.512 14.9626 137.086 16.3809C135.524 21.8411 129.845 24.6067 124.165 24.6067C117.563 24.6067 110.961 20.9193 110.961 13.2607C110.961 5.67302 117.563 1.84373 124.165 1.84373ZM124.165 0C116.569 0 108.831 4.53841 108.76 13.3316C108.831 22.0539 116.498 26.5214 124.094 26.5214C130.2 26.5214 137.157 23.543 139.074 16.8772C139.499 15.3172 139.499 14.1826 139.499 12.8352C139.499 12.6934 139.499 12.6225 139.499 12.4807C139.499 12.197 139.428 11.9843 139.357 11.7715C139.428 11.5588 139.428 11.2751 139.428 10.9915C138.08 3.47473 130.767 0.0709128 124.165 0Z" fill="#C59D6E"/>
    <path d="M156.609 25.174C156.183 25.174 155.757 24.9613 155.615 24.5358C155.331 23.8976 155.047 23.2593 154.763 22.6211C152.633 22.6211 150.503 22.5502 148.373 22.5502C148.09 23.1884 147.806 23.8267 147.593 24.4649C147.451 24.8194 147.025 25.0322 146.599 25.0322C143.262 25.0322 139.925 24.9613 136.589 24.9613C136.021 24.9613 135.524 24.5358 135.524 24.0394C135.524 23.7557 135.524 23.4721 135.524 23.1884C135.524 23.0466 135.524 22.9757 135.595 22.8339C138.79 15.8135 141.984 8.86404 145.179 1.84367C145.321 1.48911 145.747 1.27637 146.173 1.27637C149.793 1.27637 153.485 1.27637 157.106 1.34728C157.531 1.34728 157.957 1.56003 158.099 1.91459C161.294 8.93496 164.489 16.0262 167.683 23.1884C167.754 23.3303 167.754 23.4012 167.754 23.543C167.754 23.8267 167.754 24.1103 167.754 24.394C167.754 24.8903 167.257 25.3158 166.689 25.3158C163.282 25.3158 159.945 25.2449 156.609 25.174ZM151.71 15.1753C151.639 15.0335 151.639 14.8916 151.568 14.6789C151.497 14.8207 151.497 14.9625 151.426 15.1753C151.497 15.1753 151.639 15.1753 151.71 15.1753Z" fill="#2D2D34"/>
    <path d="M157.035 2.34004C160.229 9.36041 163.424 16.4517 166.618 23.6139C166.618 23.8975 166.618 24.1812 166.618 24.4648C163.282 24.3939 159.945 24.323 156.609 24.323C156.254 23.4721 155.899 22.6211 155.544 21.7702C152.917 21.7702 150.29 21.6992 147.664 21.6992C147.309 22.5502 146.954 23.3302 146.599 24.1812C143.262 24.1812 139.925 24.1103 136.589 24.1103C136.589 23.8266 136.589 23.543 136.589 23.2593C139.783 16.2389 142.978 9.2895 146.173 2.26914C149.722 2.26914 153.414 2.26913 157.035 2.34004ZM150.077 16.0971C151.071 16.0971 152.065 16.0971 152.988 16.0971C152.491 14.2534 151.994 12.4806 151.497 10.6368C151.071 12.4806 150.574 14.2534 150.077 16.0971ZM157.035 0.425398C153.414 0.425398 149.722 0.425405 146.102 0.354492C145.25 0.354492 144.469 0.779962 144.114 1.48909C140.919 8.50946 137.725 15.4589 134.53 22.4793C134.459 22.692 134.388 22.9048 134.388 23.1884C134.388 23.4721 134.388 23.7557 134.388 24.0394C134.388 25.0321 135.311 25.8831 136.518 25.8831C139.854 25.8831 143.191 25.8831 146.528 25.954C147.451 25.954 148.232 25.4576 148.515 24.7485C148.728 24.323 148.87 23.8975 149.083 23.4721C150.716 23.4721 152.349 23.4721 153.982 23.543C154.195 23.9685 154.337 24.3939 154.55 24.8903C154.834 25.5994 155.686 26.0958 156.538 26.0958C159.874 26.1667 163.211 26.1667 166.547 26.2377C167.754 26.2377 168.677 25.4576 168.677 24.3939C168.677 24.1103 168.677 23.8266 168.677 23.543C168.677 23.3302 168.606 23.0466 168.535 22.8338C165.341 15.6717 162.146 8.58037 158.951 1.56001C158.738 0.921792 157.886 0.425398 157.035 0.425398Z" fill="#C59D6E"/>
    <path d="M186.851 25.8123C186.283 25.8123 185.786 25.3868 185.786 24.8195C185.786 23.1885 185.786 21.5575 185.786 19.9265C185.786 19.8556 185.786 19.8556 185.786 19.7847C185.857 19.4301 185.857 19.0756 185.928 18.721C185.502 19.2883 185.076 19.8556 184.721 20.4229C184.508 20.7066 184.224 20.8484 183.799 20.8484C182.663 20.8484 181.527 20.7775 180.391 20.7775C180.036 20.7775 179.681 20.6357 179.468 20.352C179.042 19.7847 178.616 19.2174 178.261 18.6501C178.332 19.0047 178.332 19.3592 178.403 19.7138C178.403 19.7847 178.403 19.7847 178.403 19.8556C178.403 21.4866 178.403 23.1176 178.403 24.7486C178.403 25.245 177.906 25.6705 177.338 25.6705C174.144 25.5995 170.949 25.5286 167.754 25.4577C167.186 25.4577 166.689 25.0322 166.689 24.5359C166.689 17.3027 166.689 9.99873 166.689 2.76562C166.689 2.26923 167.186 1.84375 167.754 1.84375C170.878 1.84375 174.002 1.84375 177.125 1.91467C177.48 1.91467 177.764 2.05649 177.977 2.34014C179.326 4.04205 180.675 5.81487 182.095 7.58769C183.444 5.88579 184.792 4.11296 186.212 2.41105C186.425 2.1274 186.709 1.98557 187.064 1.98557C190.188 1.98557 193.311 1.98558 196.364 2.05649C196.932 2.05649 197.429 2.48196 197.429 3.04927C197.429 10.4951 197.429 17.941 197.429 25.4577C197.429 25.9541 196.932 26.3796 196.364 26.3796C193.17 26.025 190.046 25.8832 186.851 25.8123Z" fill="#2D2D34"/>
    <path d="M196.364 2.76557C196.364 10.2114 196.364 17.6573 196.364 25.1031C193.169 25.0322 189.975 24.8904 186.851 24.8195C186.851 23.1885 186.851 21.5575 186.851 19.8556C187.064 18.1537 187.277 16.4517 187.49 14.7498C186.283 16.4517 185.005 18.1536 183.798 19.7846C182.663 19.7846 181.527 19.7137 180.391 19.7137C179.113 18.0118 177.906 16.239 176.628 14.5371C176.841 16.239 177.054 17.9409 177.338 19.6428C177.338 21.2738 177.338 22.9048 177.338 24.5358C174.144 24.4649 170.949 24.394 167.754 24.3231C167.754 17.019 167.754 9.78594 167.754 2.48192C170.807 2.48192 174.073 2.48191 177.125 2.55283C178.758 4.68021 180.462 6.73669 182.095 8.86407C183.727 6.8076 185.431 4.68022 187.064 2.62374C190.046 2.76557 193.311 2.76557 196.364 2.76557ZM196.364 0.850924C193.24 0.850924 190.117 0.85092 187.064 0.780007C186.354 0.780007 185.715 1.06366 185.289 1.56005C184.224 2.9074 183.16 4.25474 182.095 5.60208C181.03 4.25474 179.965 2.83648 178.9 1.48914C178.474 0.992746 177.835 0.709101 177.125 0.709101C174.002 0.709101 170.878 0.709096 167.754 0.638184C166.547 0.638184 165.625 1.48914 165.625 2.48192C165.625 9.71503 165.625 17.019 165.625 24.2522C165.625 25.3158 166.547 26.1668 167.754 26.1668C170.949 26.2377 174.144 26.3086 177.338 26.3795C178.545 26.3795 179.468 25.5995 179.468 24.5358C179.468 23.4721 179.468 22.4084 179.468 21.3447C179.752 21.4865 180.036 21.5575 180.391 21.5575C181.527 21.5575 182.663 21.6284 183.798 21.6284C184.153 21.6284 184.437 21.5575 184.721 21.4865C184.721 22.5502 184.721 23.6139 184.721 24.6776C184.721 25.7413 185.644 26.5923 186.851 26.6632C190.046 26.7341 193.24 26.8759 196.364 26.9468C197.571 27.0178 198.494 26.1668 198.494 25.1031C198.494 17.6573 198.494 10.1405 198.494 2.69465C198.494 1.70187 197.5 0.850924 196.364 0.850924Z" fill="#C59D6E"/>
    <path d="M198.352 26.1668C197.784 26.1668 197.287 25.6704 197.287 25.174C197.287 17.7282 197.287 10.2823 197.287 2.76558C197.287 2.26919 197.784 1.77279 198.352 1.84371C204.954 1.91462 211.627 1.91462 218.23 1.98553C218.798 1.98553 219.295 2.41101 219.295 2.97832C219.295 5.24753 219.295 7.51673 219.295 9.78594C219.295 10.2114 219.011 10.566 218.656 10.7078C218.798 10.8496 218.94 11.1333 218.94 11.346C218.94 13.4734 218.94 15.6008 218.94 17.7282C218.94 17.9409 218.869 18.1537 218.727 18.3664C219.082 18.5082 219.366 18.8628 219.366 19.2883C219.366 21.5575 219.366 23.8267 219.366 26.0959C219.366 26.6632 218.869 27.0887 218.301 27.0177C211.627 26.6632 204.954 26.3795 198.352 26.1668Z" fill="#2D2D34"/>
    <path d="M218.23 2.90744C218.23 5.17665 218.23 7.44586 218.23 9.64416C214.822 9.57324 211.414 9.50233 208.007 9.50233C208.007 9.99872 208.007 10.4951 208.007 10.9915C211.273 11.0624 214.609 11.1333 217.875 11.2042C217.875 13.3316 217.875 15.459 217.875 17.5864C214.609 17.5155 211.273 17.3737 208.007 17.3027C208.007 17.7991 208.007 18.2955 208.007 18.7919C211.414 18.8628 214.822 19.0047 218.23 19.0756C218.23 21.3448 218.23 23.614 218.23 25.8123C211.627 25.5286 204.954 25.3159 198.352 25.1032C198.352 17.6573 198.352 10.1405 198.352 2.6947C204.954 2.83652 211.556 2.90744 218.23 2.90744ZM218.23 0.992792C211.627 0.992792 204.954 0.921875 198.352 0.921875C197.145 0.921875 196.222 1.77284 196.222 2.83653C196.222 10.2824 196.222 17.7282 196.222 25.1741C196.222 26.2378 197.145 27.0887 198.352 27.1596C204.954 27.3724 211.627 27.656 218.23 27.9397C219.437 28.0106 220.36 27.1596 220.36 26.025C220.36 23.7558 220.36 21.4866 220.36 19.2174C220.36 18.7919 220.218 18.3664 219.934 18.0119C219.934 17.87 219.934 17.7991 219.934 17.6573C219.934 15.5299 219.934 13.4025 219.934 11.2042C219.934 11.0624 219.934 10.9915 219.934 10.8497C220.218 10.4951 220.36 10.1405 220.36 9.64416C220.36 7.37495 220.36 5.10574 220.36 2.83653C220.36 1.84375 219.366 0.992792 218.23 0.992792Z" fill="#C59D6E"/>
    <path d="M231.292 28.1523C223.554 27.7269 218.585 23.8267 218.514 18.0827C218.514 17.7991 218.656 17.5863 218.798 17.3736C219.011 17.1608 219.294 17.0899 219.578 17.0899C221.211 17.1608 222.915 17.1608 224.548 17.2318C221.353 16.1681 218.585 14.1116 218.585 9.64408C218.585 4.7511 223.909 1.27637 231.221 1.27637C238.817 1.27637 243.645 4.82201 243.787 10.495C243.787 10.7787 243.716 11.0623 243.503 11.2042C243.29 11.4169 243.006 11.4878 242.722 11.4878C240.521 11.4169 238.249 11.346 236.049 11.346C240.237 12.197 244.213 14.1825 244.213 19.501C244.213 25.3867 239.385 28.5778 231.292 28.1523ZM230.298 18.4373C230.298 18.5791 230.298 18.8628 231.434 18.9337C232.073 18.9337 232.286 18.8628 232.357 18.7918C232.286 18.7209 231.931 18.5791 230.937 18.4373C230.724 18.4373 230.511 18.4373 230.298 18.4373ZM231.434 10.2114C231.008 10.2114 230.582 10.3532 230.582 10.495C230.582 10.6369 230.795 10.7078 231.15 10.7078C231.576 10.7787 232.073 10.7787 232.57 10.8496C232.499 10.7078 232.428 10.566 232.428 10.4241C232.215 10.3532 231.931 10.2114 231.434 10.2114Z" fill="#2D2D34"/>
    <path d="M231.221 2.34004C237.61 2.34004 242.58 5.03473 242.722 10.5659C239.598 10.495 236.475 10.4241 233.351 10.3532C233.351 9.64406 232.357 9.21859 231.434 9.21859C230.582 9.21859 229.517 9.50224 229.517 10.495C229.517 11.2751 230.227 11.7005 231.008 11.7714C236.191 12.2678 243.148 13.0479 243.148 19.5719C243.148 25.954 236.83 27.4432 231.221 27.1595C225.045 26.8759 219.578 23.9685 219.507 18.1536C222.702 18.2245 225.968 18.3663 229.162 18.4373C229.162 19.5719 230.227 19.9264 231.363 19.9264C232.428 19.9973 233.351 19.7137 233.351 18.8627C233.351 18.0827 232.783 17.7281 231.008 17.4445C225.613 16.8063 219.72 15.8135 219.72 9.71498C219.72 5.03474 225.116 2.34004 231.221 2.34004ZM231.221 0.354492C223.27 0.354492 217.52 4.25469 217.52 9.71498C217.52 12.7642 218.727 14.7498 220.43 16.168C220.146 16.168 219.791 16.168 219.507 16.168C218.94 16.168 218.372 16.3808 218.017 16.7353C217.591 17.0899 217.378 17.5863 217.378 18.1536C217.449 24.4648 222.844 28.7905 231.221 29.216C239.882 29.7124 245.278 26.0958 245.278 19.7137C245.278 16.7353 244.071 14.3243 241.728 12.6933C242.083 12.6933 242.438 12.6933 242.722 12.6933C243.29 12.6933 243.858 12.4806 244.213 12.126C244.639 11.7714 244.852 11.2042 244.852 10.6369C244.71 4.2547 239.527 0.354492 231.221 0.354492Z" fill="#C59D6E"/>
</svg>
