<svg width="46" height="48" viewBox="0 0 46 48" fill="none" xmlns="http://www.w3.org/2000/svg">
    <path d="M26.5632 46.7002C26.4767 46.6714 26.419 46.6426 26.3325 46.6426C26.1883 46.585 26.0441 46.5562 25.8999 46.4986C25.5249 46.3833 25.15 46.2681 24.775 46.0952C24.0828 45.8071 23.3618 45.4326 22.6408 44.9141C21.9774 44.4531 21.3717 43.9057 20.8237 43.3007L21.141 45.231L18.949 43.7041C18.8336 43.6752 18.6894 43.6464 18.4876 43.5312C17.7377 43.0702 17.0743 42.4076 16.584 41.6298L16.6128 42.0907L14.5651 40.5926C12.4596 39.0657 10.931 37.2795 9.9504 35.2341L10.2677 36.9914C10.1811 36.8762 8.85441 35.3205 8.76789 35.2052C8.59484 34.9171 8.39294 34.6291 8.21989 34.3121C7.87379 33.736 7.49885 33.0445 7.12391 32.3531C6.86433 31.8921 6.6336 31.3736 6.40287 30.855C6.02792 30.0195 5.76835 29.3857 5.53761 28.7807C5.33572 28.2333 5.16267 27.7148 4.98962 27.1962L4.93194 26.9945C4.78773 26.5048 4.61468 25.9862 4.47047 25.4388C4.38394 25.0643 4.29742 24.661 4.23974 24.2864C4.21089 24.1712 4.21089 24.0271 4.18205 23.9119C4.15321 23.7967 4.12437 23.6526 4.12437 23.5374C4.06668 23.1629 3.98016 22.7883 3.95132 22.385C3.89364 21.7512 3.80711 21.0021 3.80711 20.2243C3.80711 19.6769 3.86479 19.1583 3.89363 18.6686C3.89363 18.5245 3.92248 18.3805 3.92248 18.2364V18.0348C3.95132 17.6314 3.98016 17.2281 4.06669 16.796C4.15321 16.3062 4.26858 15.8164 4.41279 15.269C4.52815 14.8081 4.67236 14.376 4.78773 13.9438L4.87425 13.6269L4.84541 13.4829L4.81657 13.454C4.52815 13.2236 4.23974 12.9931 3.95132 12.7338C2.99954 11.956 2.16313 11.034 1.49977 10.0545C1.12483 9.47833 0.807569 8.90214 0.547993 8.38357C0.374943 8.03786 0.31726 7.72095 0.230735 7.43286L0.201893 7.26C0.14421 7.05833 0.115368 6.85667 0.0576848 6.655L0 6.30929V5.27214V5.18571V5.1281C0 5.01286 0.0288426 4.84 0.0865261 4.66714C0.259576 4.06214 0.576836 3.19786 1.2402 2.42C1.90356 1.64214 2.65344 1.15238 3.51869 0.921905C3.92248 0.806667 4.32626 0.777857 4.75889 0.777857C5.47993 0.777857 6.22981 0.921905 7.06622 1.26762C7.75843 1.5269 8.33526 1.93024 8.88325 2.27595C8.99862 2.36238 9.11399 2.42 9.22935 2.50643C9.69082 2.79452 10.1234 3.14024 10.5272 3.42833C10.6714 3.54357 10.8156 3.65881 10.9599 3.74524L11.1041 3.86048C11.4213 3.48595 11.7674 3.14024 12.1424 2.85214C12.4885 2.59286 12.8634 2.30476 13.296 1.98786C13.844 1.61333 14.5074 1.29643 15.2861 1.03714C15.7476 0.893095 16.1802 0.777857 16.6417 0.691429C16.757 0.662619 16.9013 0.63381 17.0166 0.605C17.2762 0.547381 17.5069 0.489762 17.7665 0.432143L18.1415 0.345714L19.4393 0.201667C19.872 0.144048 20.3334 0.115238 20.766 0.0864286L20.9679 0.0576191L21.1121 0.0288095L21.1987 0H23.9098L24.054 0.0288095C24.0828 0.0288095 24.1117 0.0288095 24.1405 0.0576191C24.5155 0.0864286 24.8904 0.115238 25.2654 0.144048L26.8805 0.259286V0.316905H26.967H26.9959C27.4573 0.403333 27.9188 0.489762 28.5245 0.63381C28.6398 0.662619 28.7264 0.691429 28.8417 0.691429C29.1878 0.749048 29.5628 0.835476 29.9377 0.979524C30.428 1.18119 31.0914 1.44048 31.6971 1.84381C32.3316 2.24714 32.9084 2.67929 33.4276 3.16905C33.6295 3.37071 33.8314 3.57238 34.0044 3.77405L34.2063 3.60119C34.437 3.39952 34.6966 3.19786 34.9562 3.025C35.4753 2.65048 35.9656 2.30476 36.4271 2.01667C36.7732 1.78619 37.1482 1.55571 37.5808 1.35405C38.0422 1.15238 38.4749 0.979524 38.9075 0.864286C39.3401 0.749048 39.8016 0.662619 40.2919 0.662619C40.3496 0.662619 40.3784 0.662619 40.4361 0.662619C41.3302 0.691429 42.0801 0.921905 42.7434 1.32524C43.2914 1.67095 43.7529 2.1031 44.099 2.59286C44.4163 3.05381 44.7624 3.60119 44.9354 4.32143C45.0219 4.66714 45.0796 4.98405 45.1085 5.30095C45.1662 5.81952 45.1085 6.3381 44.9931 6.97191C44.8489 7.63452 44.6182 8.26833 44.3009 8.87333C43.8106 9.79524 43.3203 10.4867 42.7434 11.0629L42.6858 11.1205C42.1378 11.6679 41.5898 12.244 41.0129 12.7914C40.7534 13.0219 40.4938 13.2236 40.2631 13.3964V13.5117C40.638 14.4624 40.9841 16.0181 40.9841 16.0181C41.2148 15.5283 41.5321 14.7217 41.5321 14.7217C41.6186 14.9521 42.2243 16.5655 42.282 16.8536C42.3108 17.1129 42.3685 17.3721 42.3973 17.6026C42.455 17.9483 42.4839 18.2652 42.5416 18.5533C42.6858 19.3888 42.7146 20.1955 42.7146 20.8869C42.7146 21.5207 42.6569 22.1257 42.5992 22.7019L42.5704 22.9036C42.5127 23.3933 42.4839 23.8831 42.3685 24.4017C42.2243 25.0067 42.0512 25.6117 41.8494 26.159C41.6763 26.6488 41.5033 27.1098 41.3302 27.5131C41.186 27.83 41.0418 28.1469 40.8976 28.435L40.8687 28.4926C40.5803 29.04 40.3207 29.6162 40.0323 30.1636C39.9458 30.3652 39.8304 30.5381 39.7151 30.7398C39.5709 30.9991 39.4555 31.2295 39.3401 31.46C39.0517 32.0362 38.7921 32.6412 38.5614 33.1886C38.3883 33.5919 38.273 33.9952 38.1576 34.341C38.0711 34.6579 38.0134 34.9748 37.9846 35.3205C37.9557 35.7814 37.9269 36.2712 37.9557 36.761C37.9557 37.0202 37.9846 37.51 37.5808 37.9133C37.3212 38.1726 36.9751 38.3167 36.5713 38.3167C36.5136 38.3167 36.4848 38.3167 36.4271 38.3167C35.9656 38.2879 35.6195 38.2302 35.2734 38.1438C35.0139 38.0574 34.6101 37.9133 34.264 37.6252L34.2063 37.6829C33.8025 38.0862 33.3987 38.4607 33.0815 38.864C32.7642 39.2674 32.4758 39.7283 32.2739 40.2469C32.0432 40.8231 31.9278 41.2552 31.899 41.6874C31.899 41.8314 31.899 41.9467 31.899 42.0907C31.899 42.1771 31.899 42.2348 31.899 42.3212L31.7259 43.8481L30.3992 43.5888L29.9089 43.2143C29.7358 43.0702 29.5916 42.9262 29.4474 42.7821C29.4474 42.811 30.1396 44.6836 30.1396 44.6836L28.2072 44.3667L27.9476 44.3379C27.7457 44.3091 27.5727 44.2802 27.3996 44.2514C27.3708 44.2514 27.342 44.2514 27.2843 44.2226C27.342 44.3091 27.4285 44.4243 27.4862 44.5107C27.515 44.5395 27.5439 44.5683 27.5727 44.5971C27.6015 44.626 27.6592 44.6836 27.7169 44.7412L29.3897 47.1324L26.5632 46.7002Z" fill="#C59D6E"/>
    <path d="M39.1094 13.8285C39.8304 15.6435 40.3496 17.4873 40.3496 19.4752C40.7533 18.5533 40.8687 17.6026 41.0129 16.6231C41.0706 16.8247 41.1571 17.0264 41.186 17.2281C41.2725 17.8043 41.359 18.3804 41.4455 18.9854C41.5609 19.7057 41.5897 20.3971 41.5897 21.1173C41.5897 21.7512 41.5321 22.4138 41.4744 23.0476C41.4455 23.4797 41.3879 23.9407 41.3013 24.3728C41.186 24.9202 40.9841 25.4964 40.811 26.0438C40.6668 26.4759 40.4938 26.9081 40.3207 27.3114C40.2053 27.6283 40.0323 27.9164 39.8881 28.2333C39.6285 28.7807 39.3401 29.3281 39.0517 29.8754C38.8209 30.3364 38.5614 30.7685 38.3306 31.2007C38.0422 31.8057 37.7826 32.3819 37.5231 33.0157C37.35 33.4478 37.2058 33.88 37.0904 34.3121C36.9751 34.6866 36.9174 35.09 36.8885 35.4933C36.8597 36.0119 36.8309 36.5304 36.8309 37.049C36.8309 37.3659 36.8309 37.4235 36.5136 37.3947C36.2252 37.3659 35.9079 37.3371 35.6195 37.2507C35.3888 37.1931 35.158 37.0778 34.985 36.905C34.7831 36.7321 34.6389 36.4728 34.4658 36.2424C34.437 36.2712 34.3793 36.3 34.3505 36.3288C34.0621 36.5593 33.7736 36.7609 33.5141 37.0202C33.0814 37.4524 32.62 37.8845 32.245 38.3454C31.8412 38.864 31.4951 39.4114 31.2644 40.0164C31.0337 40.5926 30.8606 41.1976 30.8318 41.8314C30.8318 42.0619 30.8318 42.2924 30.8318 42.5228C30.8029 42.5228 30.8029 42.5228 30.7741 42.5516C29.3609 41.3416 29.1013 39.7859 29.5051 38.0574C28.8417 38.7776 28.3802 39.5843 28.1783 40.535C27.9765 41.5145 28.1495 42.4652 28.4956 43.4447C28.2072 43.3871 27.9765 43.3583 27.7169 43.3295C27.3708 43.2719 27.0535 43.1278 26.7363 42.9262C26.4478 42.7533 26.246 42.494 26.0729 42.2347C25.9575 42.0907 25.8422 42.0907 25.7556 42.2635C25.7268 42.3212 25.698 42.3788 25.6691 42.4652C25.5249 43.1566 25.6403 43.7904 25.9575 44.3955C26.1306 44.7412 26.419 45.0581 26.6497 45.4038C26.7363 45.519 26.8228 45.6054 26.9382 45.7207C26.7939 45.6919 26.7074 45.6631 26.6497 45.6343C26.1594 45.4614 25.6403 45.3174 25.15 45.1157C24.4578 44.8564 23.8521 44.4819 23.2464 44.0497C22.6407 43.6176 22.0927 43.1278 21.5736 42.5805C20.9102 41.8314 20.4488 40.9959 20.1027 40.0452C19.9873 39.6995 19.8142 39.3538 19.4681 39.1233C19.2951 38.9793 19.122 39.0369 19.0932 39.2385C18.9778 39.6707 18.8625 40.1316 18.8336 40.5638C18.7759 41.284 18.9202 41.9754 19.2086 42.6669C19.122 42.6381 19.0644 42.6381 19.0067 42.6093C18.3145 42.1771 17.7953 41.6009 17.3915 40.9383C17.1031 40.4485 16.8147 39.93 16.584 39.3826C16.4109 39.0081 16.2956 38.6047 16.1513 38.2014C16.0648 37.9133 15.9783 37.654 15.8629 37.3083C15.3726 38.0574 15.113 38.8352 15.1996 39.7283C12.3731 37.654 10.5272 35.0035 9.8927 31.5752C9.74849 32.1514 9.63312 32.7276 9.6908 33.3326C9.71965 33.9088 9.83501 34.485 9.92154 35.0612C9.66196 34.6578 9.40239 34.2545 9.17165 33.8512C8.79671 33.2174 8.45061 32.5835 8.10451 31.9209C7.84493 31.46 7.6142 30.9702 7.41231 30.4804C7.12389 29.8178 6.83547 29.1552 6.5759 28.4638C6.374 27.9164 6.20095 27.369 6.0279 26.8216C5.85485 26.3031 5.71065 25.7845 5.56644 25.2659C5.45107 24.805 5.39339 24.3152 5.30686 23.8254C5.22034 23.3357 5.10497 22.8747 5.07613 22.385C5.01844 21.6935 4.96076 21.0021 4.96076 20.3395C4.96076 19.7057 5.01844 19.0719 5.07613 18.4381C5.10497 18.0059 5.13381 17.545 5.22034 17.1128C5.30686 16.6231 5.42223 16.1621 5.56644 15.7012C5.73949 15.0673 5.94138 14.4623 6.11443 13.8573L6.0279 12.9931C5.59528 12.6473 5.16265 12.3016 4.75887 11.9559C3.89362 11.2357 3.14373 10.429 2.50921 9.5071C2.19196 9.01734 1.90354 8.49877 1.64396 7.9802C1.49975 7.6921 1.44207 7.40401 1.35555 7.0871C1.29786 6.82782 1.24018 6.56853 1.1825 6.30925C1.1825 6.02115 1.1825 5.73306 1.1825 5.44496C1.21134 5.32972 1.21134 5.21448 1.24018 5.09925C1.44207 4.43663 1.70164 3.80282 2.16311 3.25544C2.62458 2.70805 3.14373 2.30472 3.83593 2.13186C4.81655 1.87258 5.73949 2.04543 6.66242 2.41996C7.38347 2.70805 7.98914 3.1402 8.62366 3.57234C9.20049 3.94686 9.74849 4.37901 10.2965 4.78234C10.6137 5.01282 10.931 5.24329 11.1906 5.50258C11.3059 5.61782 11.3348 5.58901 11.4213 5.47377C11.8251 4.86877 12.2866 4.32139 12.8634 3.86044C13.2095 3.57234 13.5844 3.31305 13.9594 3.05377C14.5074 2.65043 15.0842 2.41996 15.661 2.21829C16.209 2.04543 16.757 1.9302 17.305 1.81496C17.6511 1.72853 17.9972 1.67091 18.3433 1.58448L19.5835 1.46924C20.1027 1.41162 20.593 1.38282 21.1121 1.3252C21.1987 1.3252 21.2852 1.29639 21.3717 1.29639C22.2081 1.29639 23.0157 1.29639 23.8521 1.29639C23.9098 1.29639 23.9675 1.3252 24.0251 1.3252C24.5443 1.38282 25.0923 1.41162 25.6114 1.44043C25.6114 1.44043 25.6114 1.44043 25.6114 1.46924L26.8516 1.61329C27.3419 1.69972 27.8322 1.81496 28.2937 1.9302C28.7263 2.04543 29.159 2.10305 29.5627 2.2471C30.1107 2.44877 30.6587 2.70805 31.149 2.99615C31.697 3.34186 32.245 3.7452 32.7065 4.17734C33.1103 4.55186 33.4275 5.01282 33.7736 5.44496C33.8025 5.50258 33.9179 5.53139 33.9467 5.53139C34.2351 5.30091 34.5235 5.07044 34.8119 4.83996C35.1004 4.60948 35.3888 4.37901 35.706 4.14853C36.1675 3.80282 36.6578 3.48591 37.1481 3.16901C37.4654 2.96734 37.8115 2.73686 38.1576 2.59282C38.5325 2.41996 38.9075 2.27591 39.2824 2.18948C39.6574 2.10305 40.0611 2.01663 40.4649 2.01663C41.0706 2.04543 41.6763 2.16067 42.1954 2.50639C42.5992 2.76567 42.9453 3.08258 43.2049 3.4571C43.4933 3.86044 43.724 4.29258 43.8682 4.81115C43.9259 5.09925 43.9836 5.35853 44.0125 5.64663C44.0701 6.10758 44.0125 6.53972 43.9259 6.97187C43.8106 7.54806 43.6087 8.06663 43.3491 8.55639C42.9742 9.24782 42.5415 9.91044 41.9935 10.4866C41.4455 11.0628 40.8975 11.6102 40.3207 12.1576C40.0035 12.4457 39.6285 12.705 39.2536 12.9931L39.1094 13.8285Z" fill="#2D2D34"/>
    <path d="M23.6482 42.4691C23.2733 42.181 22.8983 41.8352 22.5811 41.4895C22.1196 40.9998 21.7735 40.366 21.4562 39.5305C21.2832 39.0407 20.9371 38.3205 20.2161 37.8019C19.8411 37.5426 19.4373 37.3986 19.0047 37.3986C18.4567 37.3986 17.9376 37.6291 17.5915 38.0324C17.5626 37.9171 17.5338 37.8307 17.4761 37.7155C17.4184 37.5426 17.3607 37.3698 17.303 37.1681L16.0628 33.4229L14.1016 36.4767C14.0439 36.5631 14.0151 36.6207 13.9574 36.7071C12.5442 35.1802 11.6501 33.3941 11.2751 31.3486L9.34272 31.291C9.31388 31.2621 9.31388 31.2333 9.28504 31.1757C9.05431 30.7724 8.85241 30.3402 8.65052 29.8505C8.30442 29.0726 8.04485 28.4676 7.84295 27.9202C7.6699 27.4593 7.5257 26.9983 7.35264 26.5086L7.29496 26.2781C7.15075 25.7883 7.00654 25.3562 6.89118 24.8952C6.83349 24.6071 6.77581 24.2902 6.71813 23.9445C6.68928 23.8005 6.66044 23.6852 6.66044 23.5412C6.6316 23.3971 6.60276 23.2531 6.57392 23.1379C6.51623 22.821 6.45855 22.5329 6.42971 22.2448C6.37203 21.6686 6.31434 21.006 6.31434 20.3721C6.31434 19.9688 6.34318 19.5367 6.40087 19.0757C6.40087 18.9317 6.42971 18.7588 6.42971 18.6148L6.45855 18.4131C6.48739 18.0674 6.51623 17.7505 6.54508 17.4624C6.60276 17.0879 6.71813 16.6845 6.83349 16.1948C6.94886 15.7626 7.06423 15.3593 7.20844 14.9271L7.46801 14.0629L7.26612 12.1614L6.2855 11.3836C5.99708 11.1531 5.70867 10.9226 5.44909 10.6921C4.6992 10.0871 4.06469 9.3669 3.5167 8.58905C3.22828 8.18571 2.99754 7.69595 2.76681 7.26381C2.73797 7.20619 2.70913 7.03333 2.65144 6.88928L2.59376 6.68762C2.56492 6.54357 2.53608 6.39952 2.50723 6.25547C2.50723 6.22666 2.50724 6.19785 2.47839 6.16904V5.59285V5.56404C2.65144 5.04547 2.82449 4.69976 3.05523 4.41166C3.40133 4.00833 3.6609 3.89309 3.83395 3.83547C4.007 3.80666 4.15121 3.77785 4.32426 3.77785C4.67036 3.77785 5.10299 3.86428 5.5933 4.06595C5.99708 4.23881 6.42971 4.49809 6.86233 4.815C6.9777 4.90143 7.09307 4.98785 7.23728 5.04547C7.61222 5.27595 7.95832 5.56404 8.33326 5.85214C8.47747 5.96738 8.65052 6.08262 8.79473 6.19785L8.96778 6.3419C9.19851 6.51476 9.40041 6.65881 9.54462 6.80285C9.91956 7.14857 10.381 7.35024 10.8425 7.35024C11.2174 7.35024 11.8808 7.235 12.3999 6.48595C12.746 5.96738 13.0921 5.56404 13.4671 5.27595C13.7555 5.04547 14.0728 4.815 14.4765 4.55571C14.7938 4.32523 15.1976 4.15238 15.7167 3.97952C16.0628 3.86428 16.4378 3.77785 16.8127 3.69142C16.9569 3.66262 17.0723 3.63381 17.2165 3.605C17.4472 3.54738 17.6491 3.51857 17.8799 3.46095L18.1106 3.40333L19.2643 3.28809C19.6969 3.23047 20.1007 3.20166 20.5622 3.17285L20.764 3.14404C20.8506 3.14404 20.9659 3.11523 21.0236 3.11523H23.1291C23.1868 3.11523 23.2733 3.14404 23.3886 3.14404C23.7636 3.17285 24.1674 3.20166 24.5423 3.23047L24.9173 3.28809L26.0998 3.43214C26.5901 3.51857 27.0515 3.63381 27.3976 3.72023C27.513 3.74904 27.6572 3.77785 27.7726 3.80666C28.0322 3.86428 28.2629 3.9219 28.4359 3.97952C29.0128 4.21 29.3877 4.38285 29.7338 4.58452C30.2241 4.87262 30.6568 5.21833 31.0317 5.56404C31.2047 5.70809 31.3778 5.93857 31.5508 6.19785C31.6662 6.37071 31.8104 6.51476 31.9546 6.68762C32.3296 7.11976 32.8776 7.37905 33.4256 7.37905H34.0024L34.4927 7.03333C34.6946 6.88928 34.8965 6.71643 35.0984 6.57238C35.1849 6.48595 35.5598 6.19785 35.5598 6.19785C35.7906 6.025 35.9925 5.85214 36.1944 5.70809C36.6847 5.36238 37.1461 5.04547 37.5788 4.75738C37.8672 4.58452 38.1268 4.41166 38.3863 4.29643C38.6748 4.15238 38.9632 4.06595 39.1939 3.97952C39.3381 3.95071 39.6554 3.86428 39.8573 3.86428C40.2611 3.89309 40.5495 3.95071 40.7514 4.09476C40.9821 4.23881 41.1551 4.38285 41.2417 4.55571C41.4724 4.90143 41.5878 5.1319 41.6454 5.33357C41.7031 5.53524 41.732 5.7369 41.7608 5.90976C41.7897 6.14024 41.7608 6.37071 41.7031 6.71643C41.6166 7.09095 41.4724 7.46547 41.2994 7.84C40.9533 8.50262 40.6071 8.99238 40.2322 9.3669L40.2034 9.39571C39.6554 9.94309 39.1362 10.4905 38.6171 10.9802C38.4729 11.1243 38.271 11.2683 38.0402 11.4412C37.9249 11.5276 37.7807 11.614 37.6653 11.7293L37.1173 12.1614L36.8577 14.1781L37.0308 14.5814C37.8095 16.5693 38.1556 18.0962 38.1556 19.5943L39.3381 19.8536C39.3958 20.3145 39.3958 20.8043 39.3958 21.2364C39.3958 21.7262 39.3381 22.2448 39.3093 22.7921L39.2804 23.0226C39.2516 23.426 39.1939 23.8005 39.1362 24.1174C39.0209 24.6071 38.8478 25.1257 38.7036 25.6155C38.5594 26.0188 38.4152 26.4221 38.271 26.7679C38.1844 26.9983 38.0402 27.2576 37.9249 27.5169L37.896 27.5745C37.6365 28.1219 37.348 28.6693 37.0885 29.1879C37.0019 29.3607 36.9154 29.5336 36.8289 29.7064C36.6847 29.9945 36.5116 30.2826 36.3674 30.5707C36.0502 31.2045 35.7906 31.8383 35.531 32.4721C35.3291 32.9907 35.1561 33.5093 35.0119 33.9702C34.9542 34.1431 34.9253 34.3448 34.8965 34.5464L34.4639 33.999L33.0795 34.9498C33.0218 34.9786 32.9353 35.0362 32.8487 35.1226C32.7622 35.1802 32.7045 35.2379 32.618 35.2955C32.3873 35.4683 32.1277 35.67 31.8969 35.9005L31.8393 35.9581C31.6374 36.1598 31.4066 36.3902 31.1759 36.5919L32.1565 32.2129L27.7726 36.9952C26.8785 37.9748 26.3017 39.0695 26.0421 40.3083C26.0132 40.3948 26.0132 40.4812 25.9844 40.5676C25.8113 40.51 25.6671 40.51 25.4941 40.51C24.7442 40.51 24.0808 40.9421 23.7636 41.6624C23.7059 41.7488 23.6194 41.9505 23.5617 42.2098C23.6771 42.2386 23.6771 42.3538 23.6482 42.4691Z" fill="#3F3F47"/>
    <path d="M25.6403 31.6039C26.2172 31.6039 26.794 31.4022 27.2555 31.0565C27.4862 30.8836 27.7169 30.7108 27.9477 30.5379C28.4091 30.1922 28.7841 29.7601 28.986 29.2127C29.1879 28.6077 29.2744 27.9739 29.2744 27.3401C29.2744 27.2248 29.2744 27.1096 29.2744 26.9367C29.4474 27.196 29.5917 27.3977 29.7359 27.6282C29.8512 27.3113 29.9954 27.052 30.082 26.7639C30.255 26.1877 30.4281 25.5827 30.5434 25.0065C30.6588 24.4591 30.803 23.9117 30.8318 23.3643C30.8607 22.6153 30.8607 21.8663 30.7742 21.1172C30.6876 20.3682 30.5434 19.6191 30.3415 18.8701C30.1108 18.0346 29.7647 17.2279 29.3609 16.4213C28.8418 15.3841 28.2361 14.4046 27.515 13.5115C27.4574 13.4251 27.4285 13.3098 27.4574 13.1946C27.6016 12.5896 28.0342 12.1862 28.5245 11.8982C29.1302 11.5236 29.7647 11.2355 30.3992 10.9186C30.6011 10.8034 30.803 10.717 31.0049 10.6017C31.0049 10.5729 30.9761 10.5441 30.9761 10.4865C30.63 10.5441 30.255 10.5729 29.9089 10.6593C29.4763 10.7746 29.0437 10.9186 28.611 11.0915C27.9765 11.3508 27.342 11.6389 26.7363 11.927C26.5056 12.0422 26.3902 12.2151 26.0441 12.0422C25.525 11.7829 24.9193 11.6965 24.3136 11.6965C24.1982 11.6965 24.0252 11.6101 23.9964 11.5236C23.8521 11.2355 23.7368 10.9186 23.6791 10.5729C23.5637 10.0543 23.506 9.56458 23.4484 9.04601C23.3618 8.38339 23.3042 7.72077 23.2176 7.05815C23.1888 6.71244 23.1888 6.36672 23.1599 5.9922C23.1599 5.84815 23.1023 5.70411 23.0734 5.58887C23.0446 5.58887 23.0446 5.58887 23.0157 5.58887C22.9581 6.25149 22.9004 6.91411 22.8427 7.57672C22.8138 7.98006 22.785 8.38339 22.7273 8.78672C22.612 9.59339 22.4389 10.4001 22.2659 11.1779C22.1793 11.6101 22.0063 11.6965 21.5448 11.6965C21.3718 11.6965 21.1699 11.7253 20.9968 11.7541C20.6219 11.8405 20.1893 11.8405 19.872 12.1286C19.8431 12.1574 19.7566 12.1574 19.6989 12.1286C19.3817 11.9558 19.0933 11.7541 18.8048 11.6101C18.228 11.3508 17.6512 11.1491 17.0743 10.9186C16.8724 10.8322 16.5552 10.7458 16.3245 10.6882C15.9207 10.6017 15.5457 10.4577 15.0554 10.5441C15.1996 10.6305 15.2862 10.6882 15.3727 10.717C16.0937 11.0915 16.8436 11.4372 17.5647 11.8405C17.9973 12.071 18.3434 12.4455 18.603 12.8777C18.7472 13.1082 18.6895 13.3386 18.5453 13.5691C18.228 14.0301 17.8819 14.4622 17.5935 14.9232C17.2762 15.4129 16.9878 15.9603 16.7282 16.4789C16.4687 16.9686 16.2379 17.4584 16.0649 17.977C15.7188 18.9853 15.5169 20.0224 15.3727 21.0596C15.3438 21.2901 15.315 21.5493 15.315 21.7798C15.2573 22.8746 15.2862 23.9405 15.6034 25.0065C15.7476 25.4963 15.863 26.0148 16.036 26.5334C16.1514 26.8791 16.2668 27.2248 16.411 27.5993C16.584 27.3689 16.6994 27.1384 16.8724 26.9079C16.8436 27.6858 16.9013 28.406 17.132 29.0974C17.3051 29.616 17.6223 30.0482 18.0261 30.3939C18.3145 30.6244 18.603 30.8548 18.9202 31.0853C19.4105 31.431 19.9874 31.6039 20.5642 31.6039H25.6403Z" fill="#C59D6E"/>
    <path d="M28.7552 13.3672C28.8129 13.396 28.8129 13.4248 28.8706 13.4537C29.5628 13.7706 30.2839 14.0299 31.0626 14.1451C31.6683 14.2315 32.2163 14.1739 32.6777 13.8282C33.0238 13.5689 33.3411 13.2232 33.6295 12.9063C33.8314 12.6758 33.9756 12.3877 34.1487 12.1284C34.1198 12.0996 34.091 12.0708 34.0621 12.0708C33.9179 12.186 33.7737 12.3013 33.6583 12.4453C33.2546 12.9351 32.7931 13.3672 32.1874 13.5113C31.351 13.7129 30.4858 13.5977 29.6782 13.3096C29.3321 13.1656 29.0437 13.1944 28.7552 13.3672Z" fill="#C59D6E"/>
    <path d="M17.3916 13.3673C17.3916 13.3384 17.3916 13.3096 17.3916 13.2808C17.2185 13.252 17.0166 13.1656 16.8436 13.1944C16.3533 13.2808 15.8918 13.4537 15.4015 13.4825C14.9112 13.5401 14.4209 13.5401 13.9594 13.4249C13.3537 13.2808 12.9211 12.8775 12.5173 12.3877C12.402 12.2437 12.2866 12.0132 11.9982 12.042C12.2577 12.3877 12.4596 12.7334 12.6904 13.0503C13.1807 13.6842 13.7864 14.1739 14.6228 14.1163C15.2573 14.0587 15.8918 13.8858 16.5263 13.713C16.8436 13.6842 17.132 13.5113 17.3916 13.3673Z" fill="#C59D6E"/>
    <path d="M15.4592 12.3877C15.1419 12.1572 14.8247 11.9268 14.5074 11.6963C14.2767 11.9268 14.2767 12.3013 14.6516 12.5894C14.8247 12.7911 15.2861 12.647 15.4592 12.3877Z" fill="#C59D6E"/>
    <path d="M30.6876 12.3877C30.803 12.6758 31.0626 12.6758 31.351 12.647C31.5817 12.6182 31.6971 12.4453 31.7548 12.2149C31.8413 11.9844 31.7548 11.8115 31.6394 11.6675C31.351 11.9268 31.0337 12.1572 30.6876 12.3877Z" fill="#C59D6E"/>
    <path d="M23.7655 27.3687C23.7655 27.3687 28.063 26.7637 28.063 27.8872C28.063 27.8872 28.4956 26.7925 26.8228 26.5332C25.1788 26.2739 24.3712 26.2739 24.3712 26.2739L25.9575 20.8289C25.9575 20.8289 26.967 21.2034 26.8804 21.8948C26.7939 22.5863 30.2838 20.8001 26.9958 19.2156C23.7367 17.631 25.7268 17.3429 23.7367 17.631H22.9868C20.9967 17.3429 22.9868 17.631 19.7277 19.2156C16.4686 20.8001 19.9296 22.5575 19.8431 21.8948C19.7565 21.2034 20.766 20.8289 20.766 20.8289L22.2946 26.2739C22.2946 26.2739 21.487 26.2739 19.8431 26.5332C18.1991 26.7925 18.6029 27.8872 18.6029 27.8872C18.6029 26.7925 22.9003 27.3687 22.9003 27.3687H23.7655Z" fill="#2D2D34"/>
    <path d="M23.333 13.3672C23.6214 14.0586 24.2271 14.3755 24.8904 14.606C25.7268 14.9229 26.5921 15.1246 27.3708 15.5855C27.515 15.6719 27.6592 15.816 27.8034 15.9312C24.8039 14.6924 21.8043 14.6924 18.8048 15.9024C19.0067 15.7584 19.2086 15.5567 19.4393 15.4703C20.045 15.211 20.6795 15.0093 21.314 14.75C21.862 14.5196 22.4389 14.4043 22.8715 13.9434C23.0445 13.7705 23.1599 13.5689 23.333 13.3672Z" fill="#2D2D34"/>
</svg>
